<svg width="619.8874999999999px" height="245.6px" xmlns="http://www.w3.org/2000/svg" viewBox="-59.943749999999966 -47.8 619.8874999999999 245.6" style="background: rgba(0, 0, 0, 0);" preserveAspectRatio="xMidYMid"><defs><filter id="editing-metal-beveled"><feGaussianBlur stdDeviation="4" in="SourceAlpha" result="blur"></feGaussianBlur><feSpecularLighting surfaceScale="5" specularConstant="0.8" specularExponent="7.5" lighting-color="#fff" in="blur" result="specular"><fePointLight x="-250" y="-50" z="300"></fePointLight></feSpecularLighting><feComposite operator="in" in="specular" in2="SourceAlpha" result="comp"></feComposite><feComposite in="SourceGraphic" in2="comp" operator="arithmetic" k1="0" k2="1" k3="1" k4="0"></feComposite></filter></defs><g filter="url(#editing-metal-beveled)"><g transform="translate(29.770556688308716, 130.64319324493408)"><path d="M13.45 1.66L13.45 1.66L13.45 1.66Q12.06 2.08 10.33 1.46L10.33 1.46L10.33 1.46Q8.60 0.83 7.90-0.90L7.90-0.90L7.90-0.90Q7.21-2.63 7.00-4.92L7.00-4.92L7.00-4.92Q6.79-7.21 6.93-9.85L6.93-9.85L6.93-9.85Q7.07-12.48 7.07-14.98L7.07-14.98L7.07-14.98Q7.07-20.52 5.27-22.05L5.27-22.05L5.27-22.05Q1.53-24.82 2.22-36.19L2.22-36.19L2.22-36.19Q2.91-42.71 3.74-46.59L3.74-46.59L3.74-46.59Q5.13-52.97 5.06-57.41L5.06-57.41L5.06-57.41Q4.99-61.85 5.34-64.34L5.34-64.34L5.34-64.34Q5.69-66.84 6.17-68.50L6.17-68.50L6.17-68.50Q6.66-70.17 7.35-71.97L7.35-71.97L7.35-71.97Q8.04-73.77 8.60-77.93L8.60-77.93L8.60-77.93Q9.98-88.33 11.09-90.83L11.09-90.83L11.09-90.83Q12.62-94.30 14.77-97.97L14.77-97.97L14.77-97.97Q16.92-101.65 18.30-102.89L18.30-102.89L18.30-102.89Q21.49-105.25 27.46-103.31L27.46-103.31L27.46-103.31Q31.89-101.79 35.71-102.34L35.71-102.34L35.71-102.34Q39.52-102.89 41.53-102.83L41.53-102.83L41.53-102.83Q43.54-102.76 46.04-101.30L46.04-101.30L46.04-101.30Q48.54-99.84 49.92-97.83L49.92-97.83L49.92-97.83Q51.31-95.82 51.86-93.46L51.86-93.46L51.86-93.46Q52.83-89.44 52.00-83.27L52.00-83.27L52.00-83.27Q51.17-77.10 51.38-73.29L51.38-73.29L51.38-73.29Q51.59-69.47 53.04-66.08L53.04-66.08L53.04-66.08Q54.50-62.68 54.98-60.67L54.98-60.67L54.98-60.67Q55.47-58.66 55.82-56.65L55.82-56.65L55.82-56.65Q56.16-54.64 56.37-52.35L56.37-52.35L56.37-52.35Q56.58-50.06 57.20-47.15L57.20-47.15L57.20-47.15Q57.83-44.24 57.90-42.50L57.90-42.50L57.90-42.50Q57.96-40.77 57.83-39.66L57.83-39.66L57.83-39.66Q57.69-38.55 57.48-37.65L57.48-37.65L57.48-37.65Q57.27-36.75 57.62-34.88L57.62-34.88L57.62-34.88Q57.96-33.00 57.62-30.79L57.62-30.79L57.62-30.79Q57.27-28.57 56.86-26.49L56.86-26.49L56.86-26.49Q55.33-20.11 55.61-17.47L55.61-17.47L55.61-17.47Q56.16-12.76 55.61-10.75L55.61-10.75L55.61-10.75Q55.05-8.74 54.57-7.49L54.57-7.49L54.57-7.49Q54.08-6.24 53.46-4.02L53.46-4.02L53.46-4.02Q52.83-1.80 50.89 0L50.89 0L50.89 0Q48.95 1.80 47.22 1.11L47.22 1.11L47.22 1.11Q45.48 0.42 45.00-0.90L45.00-0.90L45.00-0.90Q44.51-2.22 44.17-3.61L44.17-3.61L44.17-3.61Q43.82-4.99 43.33-6.10L43.33-6.10L43.33-6.10Q42.85-7.21 41.60-7.35L41.60-7.35L41.60-7.35Q39.38-7.63 39.24-9.92L39.24-9.92L39.24-9.92Q39.11-12.20 39.31-13.94L39.31-13.94L39.31-13.94Q39.52-15.67 39.11-17.47L39.11-17.47L39.11-17.47Q38.69-19.28 37.72-20.94L37.72-20.94L37.72-20.94Q35.22-25.24 31.89-25.65L31.89-25.65L31.89-25.65Q26.90-26.35 24.96-20.80L24.96-20.80L24.96-20.80Q24.54-19.41 24.34-17.13L24.34-17.13L24.34-17.13Q24.13-14.84 23.23-13.04L23.23-13.04L23.23-13.04Q22.33-11.23 21.29-9.98L21.29-9.98L21.29-9.98Q20.25-8.74 19.34-7.70L19.34-7.70L19.34-7.70Q18.44-6.66 18.17-5.13L18.17-5.13L18.17-5.13Q17.06 0.83 13.45 1.66ZM25.79-56.44L25.79-56.44L25.79-56.44Q23.02-48.95 25.10-44.51L25.10-44.51L25.10-44.51Q26.49-42.02 28.71-41.88L28.71-41.88L28.71-41.88Q32.73-41.46 33.49-42.50L33.49-42.50L33.49-42.50Q34.25-43.54 35.29-44.72L35.29-44.72L35.29-44.72Q36.33-45.90 36.05-48.33L36.05-48.33L36.05-48.33Q35.78-50.75 35.64-52.63L35.64-52.63L35.64-52.63Q35.50-54.50 34.32-56.86L34.32-56.86L34.32-56.86Q33.14-59.21 32.73-61.92L32.73-61.92L32.73-61.92Q32.31-64.62 32.17-67.12L32.17-67.12L32.17-67.12Q31.62-72.66 29.68-72.66L29.68-72.66L29.68-72.66Q28.29-72.66 27.94-71.21L27.94-71.21L27.94-71.21Q27.60-69.75 27.46-67.39L27.46-67.39L27.46-67.39Q27.32-60.18 25.79-56.44ZM120.09-56.99L120.09-56.99L119.95-66.29L119.95-66.29Q120.09-69.61 120.64-71.14L120.64-71.14L120.64-71.14Q121.20-72.66 121.41-74.26L121.41-74.26L121.41-74.26Q121.62-75.85 121.82-77.59L121.82-77.59L121.82-77.59Q122.03-79.32 122.31-80.98L122.31-80.98L122.31-80.98Q123.00-84.87 124.25-85.14L124.25-85.14L124.25-85.14Q125.50-85.42 125.78-88.20L125.78-88.20L125.78-88.20Q126.47-92.77 125.50-95.54L125.50-95.54L125.50-95.54Q124.39-98.87 125.64-100.68L125.64-100.68L125.64-100.68Q127.99-104.28 133.40-101.79L133.40-101.79L133.40-101.79Q137.29-100.12 138.95-100.12L138.95-100.12L138.95-100.12Q140.61-100.12 141.93-100.47L141.93-100.47L141.93-100.47Q143.25-100.81 145.67-101.44L145.67-101.44L145.67-101.44Q148.10-102.06 149.56-99.64L149.56-99.64L149.56-99.64Q151.01-97.21 150.81-94.85L150.81-94.85L150.81-94.85Q150.60-92.49 150.32-90.48L150.32-90.48L150.32-90.48Q150.04-88.47 149.77-86.25L149.77-86.25L149.77-86.25Q148.79-80.71 148.17-78.97L148.17-78.97L148.17-78.97Q147.55-77.24 147.27-75.37L147.27-75.37L147.27-75.37Q146.99-73.50 146.71-71.42L146.71-71.42L146.71-71.42Q146.16-65.31 145.47-62.68L145.47-62.68L145.47-62.68Q141.86-49.09 141.86-46.18L141.86-46.18L141.86-46.18Q141.86-43.27 141.58-42.57L141.58-42.57L141.58-42.57Q141.31-41.88 140.89-41.19L140.89-41.19L140.89-41.19Q140.47-40.49 139.78-39.45L139.78-39.45L139.78-39.45Q139.09-38.41 138.26-36.19L138.26-36.19L138.26-36.19Q137.15-33.28 137.29-30.92L137.29-30.92L137.29-30.92Q137.56-26.07 136.59-23.44L136.59-23.44L136.59-23.44Q135.62-20.80 134.58-18.10L134.58-18.10L134.58-18.10Q133.54-15.39 132.57-12.76L132.57-12.76L132.57-12.76Q130.21-6.93 129.66-3.61L129.66-3.61L129.66-3.61Q129.10-0.28 127.51 1.46L127.51 1.46L127.51 1.46Q125.91 3.19 124.18 2.50L124.18 2.50L124.18 2.50Q122.45 1.80 121.96 0.83L121.96 0.83L121.96 0.83Q121.48-0.14 121.06-1.11L121.06-1.11L121.06-1.11Q119.81-3.88 118.01-4.44L118.01-4.44L118.01-4.44Q115.24-5.55 113.92-8.39L113.92-8.39L113.92-8.39Q112.60-11.23 112.39-15.25L112.39-15.25L112.39-15.25Q112.19-19.28 111.91-22.46L111.91-22.46L111.91-22.46Q111.63-25.65 111.21-28.29L111.21-28.29L111.21-28.29Q109.97-34.81 108.58-34.81L108.58-34.81L108.58-34.81Q107.75-34.81 107.33-33.35L107.33-33.35L107.33-33.35Q106.92-31.89 106.50-29.68L106.50-29.68L106.50-29.68Q105.25-23.44 103.80-21.08L103.80-21.08L103.80-21.08Q102.34-18.72 101.92-16.92L101.92-16.92L101.92-16.92Q101.51-15.12 101.30-13.45L101.30-13.45L101.30-13.45Q101.09-11.79 100.95-10.19L100.95-10.19L100.95-10.19Q100.81-8.60 100.19-6.93L100.19-6.93L100.19-6.93Q99.57-5.27 98.73-3.54L98.73-3.54L98.73-3.54Q97.90-1.80 96.65-0.55L96.65-0.55L96.65-0.55Q93.74 2.08 90.00-0.28L90.00-0.28L90.00-0.28Q87.64-1.80 84.73-2.70L84.73-2.70L84.73-2.70Q81.82-3.61 80.85-4.23L80.85-4.23L80.85-4.23Q79.88-4.85 79.11-6.52L79.11-6.52L79.11-6.52Q78.35-8.18 78.00-11.16L78.00-11.16L78.00-11.16Q77.66-14.14 77.10-18.03L77.10-18.03L77.10-18.03Q75.44-29.12 73.22-35.92L73.22-35.92L73.22-35.92Q71.42-41.46 69.61-51.10L69.61-51.10L69.61-51.10Q67.81-60.74 67.19-63.72L67.19-63.72L67.19-63.72Q66.56-66.70 66.01-66.84L66.01-66.84L66.01-66.84Q65.04-66.98 64.34-69.61L64.34-69.61L64.34-69.61Q63.37-74.19 63.79-76.55L63.79-76.55L63.79-76.55Q64.21-78.90 64.00-80.92L64.00-80.92L64.00-80.92Q63.79-82.93 63.37-85.01L63.37-85.01L63.37-85.01Q62.96-87.09 62.47-89.03L62.47-89.03L62.47-89.03Q61.99-90.97 61.57-93.19L61.57-93.19L61.57-93.19Q60.32-98.46 63.79-100.81L63.79-100.81L63.79-100.81Q68.78-103.87 72.11-101.37L72.11-101.37L72.11-101.37Q73.63-102.48 76.27-101.09L76.27-101.09L76.27-101.09Q77.79-102.62 80.08-103.59L80.08-103.59L80.08-103.59Q82.37-104.56 84.17-103.93L84.17-103.93L84.17-103.93Q85.98-103.31 86.95-101.85L86.95-101.85L86.95-101.85Q87.92-100.40 88.47-98.32L88.47-98.32L88.47-98.32Q89.30-95.41 89.79-90.48L89.79-90.48L89.79-90.48Q90.28-85.56 90.28-83.48L90.28-83.48L90.28-83.48Q90.28-81.40 90.28-79.32L90.28-79.32L90.28-79.32Q90.28-74.33 91.18-68.50L91.18-68.50L91.18-68.50Q92.08-62.68 92.01-59.42L92.01-59.42L92.01-59.42Q91.94-56.16 92.22-54.84L92.22-54.84L92.22-54.84Q92.49-53.53 92.77-52.56L92.77-52.56L92.77-52.56Q93.05-51.59 93.46-50.75L93.46-50.75L93.46-50.75Q94.44-49.23 95.82-49.64L95.82-49.64L95.82-49.64Q96.65-50.06 96.65-50.96L96.65-50.96L96.65-50.96Q96.65-51.86 96.45-53.25L96.45-53.25L96.45-53.25Q96.24-54.64 95.96-56.30L95.96-56.30L95.96-56.30Q95.68-57.96 95.82-59.70L95.82-59.70L95.82-59.70Q95.96-61.43 96.17-64.00L96.17-64.00L96.17-64.00Q96.38-66.56 96.52-69.34L96.52-69.34L96.52-69.34Q97.21-77.24 97.76-80.64L97.76-80.64L97.76-80.64Q98.32-84.04 98.60-85.91L98.60-85.91L98.60-85.91Q98.87-87.78 99.29-90.00L99.29-90.00L99.29-90.00Q101.65-91.80 102.89-94.99L102.89-94.99L102.89-94.99Q102.34-95.68 102.34-96.24L102.34-96.24L103.31-100.26L103.31-100.26Q103.45-101.79 104.70-102.96L104.70-102.96L104.70-102.96Q105.95-104.14 107.05-103.87L107.05-103.87L107.05-103.87Q108.16-103.59 108.72-103.17L108.72-103.17L108.72-103.17Q109.27-102.76 109.83-101.65L109.83-101.65L109.83-101.65Q110.66-99.57 110.87-94.85L110.87-94.85L110.87-94.85Q111.08-90.14 111.28-88.20L111.28-88.20L111.28-88.20Q111.49-86.25 111.63-84.80L111.63-84.80L111.63-84.80Q111.77-83.34 111.91-82.02L111.91-82.02L111.91-82.02Q112.05-80.71 112.05-78.00L112.05-78.00L112.05-78.00Q112.05-75.30 111.91-72.66L111.91-72.66L111.91-72.66Q111.77-70.03 113.02-67.39L113.02-67.39L113.02-67.39Q114.27-64.76 114.40-63.86L114.40-63.86L114.40-63.86Q114.54-62.96 114.40-62.06L114.40-62.06L114.40-62.06Q114.27-61.15 114.06-59.98L114.06-59.98L114.06-59.98Q113.85-58.80 113.85-56.44L113.85-56.44L113.85-56.44Q113.85-52.14 115.93-50.20L115.93-50.20L115.93-50.20Q119.12-47.29 119.81-52.42L119.81-52.42L119.81-52.42Q120.09-54.50 120.09-56.99ZM179.44-59.35L179.44-55.88L179.44-55.88Q179.44-52.00 183.46-52.00L183.46-52.00L183.46-52.00Q184.43-52.00 185.27-52.21L185.27-52.21L185.27-52.21Q186.10-52.42 188.11-52.83L188.11-52.83L188.11-52.83Q190.12-53.25 191.85-52.07L191.85-52.07L191.85-52.07Q193.59-50.89 194.49-50.34L194.49-50.34L194.49-50.34Q195.39-49.78 195.94-49.09L195.94-49.09L195.94-49.09Q196.91-47.84 196.84-44.44L196.84-44.44L196.84-44.44Q196.78-41.05 195.39-38.20L195.39-38.20L195.39-38.20Q194.00-35.36 189.15-34.67L189.15-34.67L189.15-34.67Q184.29-33.97 181.87-32.59L181.87-32.59L181.87-32.59Q179.44-31.20 178.96-28.01L178.96-28.01L178.96-28.01Q178.47-24.82 177.78-23.57L177.78-23.57L177.78-23.57Q177.08-22.33 176.95-20.80L176.95-20.80L176.95-20.80Q176.81-19.28 176.18-17.54L176.18-17.54L176.18-17.54Q175.56-15.81 175.77-14.28L175.77-14.28L175.77-14.28Q175.97-12.76 175.91-10.19L175.91-10.19L175.91-10.19Q175.84-7.63 175.14-5.13L175.14-5.13L175.14-5.13Q173.48 0.97 169.18 0.97L169.18 0.97L169.18 0.97Q167.52 0.97 166.61-0.76L166.61-0.76L166.61-0.76Q165.71-2.50 165.09-4.85L165.09-4.85L165.09-4.85Q164.46-7.21 163.84-9.85L163.84-9.85L163.84-9.85Q163.22-12.48 161.55-15.32L161.55-15.32L161.55-15.32Q159.89-18.17 159.68-21.77L159.68-21.77L159.68-21.77Q159.47-25.38 159.47-28.84L159.47-28.84L159.47-35.50L159.47-35.50Q159.47-47.70 156.70-50.75L156.70-50.75L156.70-50.75Q154.90-52.56 155.17-57.69L155.17-57.69L155.17-61.57L155.17-61.57Q155.17-63.65 155.87-64.90L155.87-64.90L155.87-64.90Q157.53-68.50 156.77-75.02L156.77-75.02L156.77-75.02Q156.01-81.54 155.31-85.08L155.31-85.08L155.31-85.08Q154.62-88.61 155.24-91.80L155.24-91.80L155.24-91.80Q155.87-94.99 156.08-96.79L156.08-96.79L156.08-96.79Q156.28-98.60 157.46-100.26L157.46-100.26L157.46-100.26Q158.64-101.92 159.54-102.13L159.54-102.13L159.54-102.13Q160.44-102.34 161.69-102.20L161.69-102.20L161.69-102.20Q163.36-102.06 164.60-103.31L164.60-103.31L164.60-103.31Q169.18-107.89 173.20-105.39L173.20-105.39L173.20-105.39Q174.87-104.28 176.60-103.03L176.60-103.03L176.60-103.03Q178.33-101.79 180.41-100.81L180.41-100.81L180.41-100.81Q182.49-99.84 185.20-100.12L185.20-100.12L185.20-100.12Q187.90-100.40 190.54-100.95L190.54-100.95L190.54-100.95Q193.17-101.51 195.80-101.23L195.80-101.23L195.80-101.23Q202.46-100.81 205.51-95.13L205.51-95.13L205.51-95.13Q207.59-91.25 207.11-87.02L207.11-87.02L207.11-87.02Q206.62-82.79 206.21-80.15L206.21-80.15L206.21-80.15Q205.79-77.52 205.79-75.78L205.79-75.78L205.79-75.78Q205.79-74.05 205.65-73.63L205.65-73.63L205.65-73.63Q205.51-73.22 205.37-72.94L205.37-72.94L205.37-72.94Q204.82-71.42 204.68-68.78L204.68-68.78L204.68-68.78Q204.54-66.15 204.13-64.90L204.13-64.90L204.13-64.90Q202.88-61.71 199.27-61.71L199.27-61.71L199.27-61.71Q196.91-61.71 195.25-62.54L195.25-62.54L195.25-62.54Q191.92-64.21 190.54-64.34L190.54-64.34L190.54-64.34Q188.59-64.62 187.90-66.56L187.90-66.56L187.90-66.56Q187.62-67.26 187.35-68.02L187.35-68.02L187.35-68.02Q187.07-68.78 186.51-69.41L186.51-69.41L186.51-69.41Q185.96-70.03 185.33-71.07L185.33-71.07L185.33-71.07Q184.71-72.11 182.77-71.83L182.77-71.83L182.77-71.83Q178.89-71.28 179.16-67.39L179.16-67.39L179.44-59.35ZM245.59-76.69L245.59-76.69L245.59-76.69Q240.87-75.44 243.79-60.60L243.79-60.60L243.79-60.60Q244.76-56.58 244.83-53.87L244.83-53.87L244.83-53.87Q244.89-51.17 244.06-47.98L244.06-47.98L244.06-47.98Q243.23-44.79 243.23-42.85L243.23-42.85L243.23-42.85Q243.23-40.91 242.68-38.27L242.68-38.27L242.68-38.27Q242.81-35.36 242.61-32.38L242.61-32.38L242.61-32.38Q242.40-29.40 242.26-26.63L242.26-26.63L242.26-26.63Q241.84-19.83 242.12-18.58L242.12-18.58L242.12-18.58Q242.40-17.33 243.02-16.99L243.02-16.99L243.02-16.99Q243.65-16.64 244.48-16.36L244.48-16.36L244.48-16.36Q246.42-15.67 246.84-14.56L246.84-14.56L246.84-14.56Q247.25-13.45 247.18-11.44L247.18-11.44L247.18-11.44Q247.11-9.43 246.70-7.21L246.70-7.21L246.70-7.21Q245.45-1.94 243.23-0.42L243.23-0.42L243.23-0.42Q241.98 0.42 240.67 0.14L240.67 0.14L240.67 0.14Q239.35-0.14 237.82-0.42L237.82-0.42L237.82-0.42Q233.11-1.25 229.78 0.42L229.78 0.42L229.78 0.42Q221.60 4.85 217.16 0.42L217.16 0.42L217.16 0.42Q215.36-1.39 214.94-5.13L214.94-5.13L214.94-5.13Q214.39-11.93 215.70-13.87L215.70-13.87L215.70-13.87Q217.02-15.81 217.92-16.29L217.92-16.29L217.92-16.29Q218.82-16.78 219.52-17.20L219.52-17.20L219.52-17.20Q221.04-17.89 221.04-19.55L221.04-19.55L221.04-19.55Q221.04-20.80 221.39-22.26L221.39-22.26L221.39-22.26Q221.74-23.71 222.01-25.38L222.01-25.38L222.01-25.38Q222.71-29.40 221.32-32.03L221.32-32.03L221.32-32.03Q219.79-35.08 220.00-37.03L220.00-37.03L220.00-37.03Q220.21-38.97 220.35-40.49L220.35-40.49L220.90-43.82L220.90-43.82Q221.18-47.84 220.77-50.68L220.77-50.68L220.77-50.68Q220.35-53.53 220.14-56.65L220.14-56.65L220.14-56.65Q219.93-59.77 220.00-62.54L220.00-62.54L220.00-62.54Q220.07-65.31 220.07-67.81L220.07-67.81L220.07-67.81Q220.07-73.63 218.89-74.74L218.89-74.74L218.89-74.74Q217.71-75.85 216.74-75.92L216.74-75.92L216.74-75.92Q215.77-75.99 214.80-75.99L214.80-75.99L214.80-75.99Q212.17-75.71 211.47-76.82L211.47-76.82L211.47-76.82Q209.95-78.35 209.95-80.71L209.95-80.71L209.95-80.71Q209.95-83.06 210.85-84.31L210.85-84.31L210.85-84.31Q211.75-85.56 212.03-87.16L212.03-87.16L212.03-87.16Q212.31-88.75 212.31-90.55L212.31-90.55L212.31-90.55Q212.58-94.71 212.03-96.03L212.03-96.03L212.03-96.03Q211.47-97.35 211.27-98.39L211.27-98.39L211.27-98.39Q211.06-99.43 211.06-100.40L211.06-100.40L211.06-100.40Q211.06-104.42 216.74-104.56L216.74-104.56L216.74-104.56Q220.21-104.70 223.82-104.49L223.82-104.49L223.82-104.49Q227.42-104.28 229.50-104.70L229.50-104.70L229.50-104.70Q236.71-106.08 241.08-105.81L241.08-105.81L241.08-105.81Q245.45-105.53 246.70-105.11L246.70-105.11L246.70-105.11Q250.16-103.73 250.44-97.49L250.44-97.49L250.44-97.49Q250.58-94.57 250.58-91.38L250.58-91.38L250.58-91.38Q250.58-88.20 250.86-84.87L250.86-84.87L250.86-84.87Q251.41-77.93 245.59-76.69ZM322.48-96.38L322.48-96.38L322.48-96.38Q321.58-93.46 320.05-89.93L320.05-89.93L320.05-89.93Q318.53-86.39 316.59-82.44L316.59-82.44L316.59-82.44Q314.65-78.49 313.54-74.05L313.54-74.05L313.54-74.05Q312.43-69.61 311.87-67.81L311.87-67.81L311.87-67.81Q310.90-65.31 308.27-61.36L308.27-61.36L308.27-61.36Q305.63-57.41 304.52-55.47L304.52-55.47L304.52-55.47Q302.17-51.45 301.61-48.12L301.61-48.12L301.61-48.12Q302.03-46.46 303.00-43.75L303.00-43.75L303.00-43.75Q303.97-41.05 304.94-37.72L304.94-37.72L304.94-37.72Q307.30-29.81 307.30-24.27L307.30-24.27L307.30-24.27Q310.21-18.58 310.07-15.88L310.07-15.88L310.07-15.88Q309.93-13.17 309.52-11.23L309.52-11.23L309.52-11.23Q311.04-7.63 311.46-5.13L311.46-5.13L311.46-5.13Q311.87-2.63 309.65-0.07L309.65-0.07L309.65-0.07Q307.44 2.50 305.63 1.87L305.63 1.87L305.63 1.87Q303.83 1.25 303.41-1.11L303.41-1.11L303.41-1.11Q302.86-3.47 301.75-3.54L301.75-3.54L301.75-3.54Q300.64-3.61 299.60-3.54L299.60-3.54L299.60-3.54Q298.56-3.47 296.83-4.51L296.83-4.51L296.83-4.51Q295.09-5.55 294.40-8.39L294.40-8.39L294.40-8.39Q293.71-11.23 292.94-14.42L292.94-14.42L292.94-14.42Q292.18-17.61 291.35-20.80L291.35-20.80L291.35-20.80Q289.27-28.43 287.88-28.43L287.88-28.43L287.88-28.43Q287.05-28.57 286.77-27.60L286.77-27.60L286.77-27.60Q286.50-26.63 286.22-25.10L286.22-25.10L286.22-25.10Q285.11-18.58 281.37-14.14L281.37-14.14L281.37-14.14Q279.01-10.96 278.52-9.78L278.52-9.78L278.52-9.78Q278.04-8.60 277.83-6.52L277.83-6.52L277.83-6.52Q277.62-4.44 275.54-2.57L275.54-2.57L275.54-2.57Q273.46-0.69 271.38-0.49L271.38-0.49L271.38-0.49Q269.30-0.28 268.61-0.28L268.61-0.28L268.61-0.28Q267.91-0.28 267.50-0.28L267.50-0.28L267.50-0.28Q266.80-0.14 265.56 0.55L265.56 0.55L265.56 0.55Q264.31 1.25 263.06 1.25L263.06 1.25L263.06 1.25Q261.81 1.25 260.29-0.55L260.29-0.55L260.29-0.55Q258.76-2.36 258.42-3.12L258.42-3.12L258.42-3.12Q258.07-3.88 258.21-4.65L258.21-4.65L258.21-4.65Q258.35-5.41 258.90-6.38L258.90-6.38L258.90-6.38Q263.06-13.73 265.07-22.95L265.07-22.95L265.07-22.95Q267.08-32.17 269.02-36.40L269.02-36.40L269.02-36.40Q270.96-40.63 271.17-42.99L271.17-42.99L271.17-42.99Q271.38-45.35 271.66-47.56L271.66-47.56L271.66-47.56Q272.21-51.03 270.62-55.12L270.62-55.12L270.62-55.12Q269.02-59.21 267.57-60.18L267.57-60.18L267.57-60.18Q266.11-61.15 265.70-61.92L265.70-61.92L265.70-61.92Q265.28-62.68 265.00-63.65L265.00-63.65L265.00-63.65Q264.72-64.62 264.59-65.73L264.59-65.73L264.59-65.73Q264.31-68.37 262.23-73.63L262.23-73.63L262.23-73.63Q259.87-79.60 256.82-85.70L256.82-85.70L256.82-85.70Q253.08-93.19 253.08-97.35L253.08-97.35L253.08-97.35Q253.08-100.81 256.13-101.23L256.13-101.23L256.13-101.23Q257.65-101.51 259.25-101.44L259.25-101.44L259.25-101.44Q260.84-101.37 262.44-101.30L262.44-101.30L262.44-101.30Q264.03-101.23 265.21-101.79L265.21-101.79L265.21-101.79Q266.39-102.34 267.84-102.89L267.84-102.89L267.84-102.89Q269.30-103.45 270.83-103.73L270.83-103.73L270.83-103.73Q274.29-104.42 275.89-102.96L275.89-102.96L275.89-102.96Q277.48-101.51 278.38-98.73L278.38-98.73L278.38-98.73Q279.29-95.96 280.05-92.56L280.05-92.56L280.05-92.56Q280.81-89.17 281.57-85.63L281.57-85.63L281.57-85.63Q282.34-82.09 283.31-79.04L283.31-79.04L283.31-79.04Q285.53-72.39 288.85-72.66L288.85-72.66L288.85-72.66Q290.52-72.80 291.07-74.95L291.07-74.95L291.07-74.95Q291.63-77.10 291.90-80.15L291.90-80.15L291.90-80.15Q292.74-88.47 295.79-92.08L295.79-92.08L295.79-92.08Q298.84-95.54 299.25-97.76L299.25-97.76L299.25-97.76Q299.67-99.98 299.95-100.95L299.95-100.95L299.95-100.95Q300.22-101.92 301.40-102.83L301.40-102.83L301.40-102.83Q302.58-103.73 303.83-103.73L303.83-103.73L303.83-103.73Q305.08-103.73 306.33-103.31L306.33-103.31L306.33-103.31Q307.57-102.89 308.54-102.20L308.54-102.20L308.54-102.20Q309.52-101.51 310.21-101.09L310.21-101.09L310.21-101.09Q320.89-103.59 322.41-100.95L322.41-100.95L322.41-100.95Q323.38-99.29 322.48-96.38ZM325.60-26.07L325.60-26.07L325.46-33.14L325.46-33.14Q325.46-35.08 325.60-36.75L325.60-36.75L325.60-36.75Q325.74-38.55 325.32-41.19L325.32-41.19L325.32-41.19Q324.63-45.76 324.70-47.91L324.70-47.91L324.70-47.91Q324.77-50.06 324.70-51.38L324.70-51.38L324.70-51.38Q324.63-52.70 324.35-53.80L324.35-53.80L324.35-53.80Q323.94-55.47 322.34-59.07L322.34-59.07L322.34-59.07Q320.75-62.68 320.75-66.84L320.75-66.84L320.75-66.84Q320.75-71 322.55-73.50L322.55-73.50L322.55-73.50Q324.21-75.99 323.80-78.63L323.80-78.63L323.80-78.63Q323.38-81.26 323.17-84.24L323.17-84.24L323.17-84.24Q322.97-87.22 323.11-90.34L323.11-90.34L323.11-90.34Q323.24-93.46 324.49-96.38L324.49-96.38L324.49-96.38Q327.54-103.45 336.70-103.17L336.70-103.17L336.70-103.17Q342.38-103.03 346.54-102.06L346.54-102.06L346.54-102.06Q350.70-101.09 352.64-101.23L352.64-101.23L352.64-101.23Q354.58-101.37 358.61-102.62L358.61-102.62L358.61-102.62Q364.43-104.84 367.90-102.34L367.90-102.34L367.90-102.34Q368.87-101.65 369.77-101.30L369.77-101.30L369.77-101.30Q370.67-100.95 371.36-100.26L371.36-100.26L371.36-100.26Q373.72-97.63 372.75-88.75L372.75-88.75L372.75-88.75Q372.47-86.12 372.20-83.48L372.20-83.48L372.20-83.48Q371.50-77.24 372.20-74.19L372.20-74.19L372.20-74.19Q372.89-71.14 372.96-68.85L372.96-68.85L372.96-68.85Q373.03-66.56 372.75-64.76L372.75-64.76L372.75-64.76Q371.92-60.74 369.56-60.74L369.56-60.74L369.56-60.74Q367.48-60.88 366.58-62.06L366.58-62.06L366.58-62.06Q365.68-63.23 365.12-64.69L365.12-64.69L365.12-64.69Q364.57-66.15 363.94-67.33L363.94-67.33L363.94-67.33Q363.32-68.50 361.24-68.50L361.24-68.50L361.24-68.50Q355.14-68.50 353.13-69.82L353.13-69.82L353.13-69.82Q351.12-71.14 349.59-71.35L349.59-71.35L349.59-71.35Q348.07-71.55 346.68-71L346.68-71L346.68-71Q343.77-69.75 343.28-66.42L343.28-66.42L343.28-66.42Q342.80-63.10 342.66-60.60L342.66-60.60L342.66-60.60Q342.52-58.10 342.66-56.02L342.66-56.02L342.66-56.02Q342.94-51.17 344.53-50.55L344.53-50.55L344.53-50.55Q346.13-49.92 347.23-50.41L347.23-50.41L347.23-50.41Q348.34-50.89 349.45-51.59L349.45-51.59L349.45-51.59Q352.78-53.80 356.32-53.74L356.32-53.74L356.32-53.74Q359.85-53.67 361.59-50.89L361.59-50.89L361.59-50.89Q363.32-48.12 363.04-45.55L363.04-45.55L363.04-45.55Q362.77-42.99 362.56-40.49L362.56-40.49L362.56-40.49Q362.35-38.00 361.93-35.78L361.93-35.78L361.93-35.78Q359.99-27.18 353.89-32.45L353.89-32.45L353.89-32.45Q345.99-33.00 344.04-30.51L344.04-30.51L344.04-30.51Q343.63-29.81 343.21-27.60L343.21-27.60L343.21-27.60Q342.80-25.38 343.07-22.88L343.07-22.88L343.07-22.88Q343.77-16.36 349.31-15.95L349.31-15.95L349.31-15.95Q352.92-15.67 355.90-16.92L355.90-16.92L355.90-16.92Q358.88-18.17 359.85-19.69L359.85-19.69L359.85-19.69Q360.69-21.36 361.93-21.56L361.93-21.56L361.93-21.56Q363.18-21.77 364.15-21.98L364.15-21.98L364.15-21.98Q365.12-22.19 366.09-22.19L366.09-22.19L366.09-22.19Q367.06-22.19 368.04-21.91L368.04-21.91L368.04-21.91Q370.53-21.08 371.02-18.03L371.02-18.03L371.02-18.03Q371.50-14.98 370.39-12.48L370.39-12.48L370.39-12.48Q369.28-9.98 368.94-7.97L368.94-7.97L368.94-7.97Q368.59-5.96 368.31-4.99L368.31-4.99L368.31-4.99Q368.04-4.02 366.72-2.57L366.72-2.57L366.72-2.57Q365.40-1.11 364.64-0.14L364.64-0.14L364.64-0.14Q363.88 0.83 362.21-0.55L362.21-0.55L362.21-0.55Q359.16-2.91 354.86 2.22L354.86 2.22L354.86 2.22Q353.75 3.74 352.50 4.44L352.50 4.44L352.50 4.44Q351.26 5.13 348.62 4.99L348.62 4.99L348.62 4.99Q345.99 4.85 344.46 3.61L344.46 3.61L344.46 3.61Q342.94 2.36 341.69 1.11L341.69 1.11L341.69 1.11Q339.61-1.53 334.48-0.83L334.48-0.83L334.48-0.83Q331.43-0.42 329.48-3.47L329.48-3.47L329.48-3.47Q329.07-3.88 328.86-4.99L328.86-4.99L328.86-4.99Q328.65-6.10 328.38-7.49L328.38-7.49L328.38-7.49Q327.40-11.09 326.64-12.13L326.64-12.13L326.64-12.13Q325.88-13.17 325.81-14.84L325.81-14.84L325.81-14.84Q325.74-16.50 325.46-18.37L325.46-18.37L325.46-18.37Q325.19-20.25 325.05-21.15L325.05-21.15L325.05-21.15Q324.91-22.05 325.25-23.30L325.25-23.30L325.25-23.30Q325.60-24.54 325.60-26.07ZM416.43-99.71L416.43-99.71L420.87-99.98L420.87-99.98Q425.58-99.98 427.59-98.46L427.59-98.46L427.59-98.46Q429.61-96.93 430.65-95.68L430.65-95.68L430.65-95.68Q431.69-94.44 432.52-93.12L432.52-93.12L432.52-93.12Q433.35-91.80 434.81-90.41L434.81-90.41L434.81-90.41Q436.26-89.03 436.26-87.16L436.26-87.16L436.26-87.16Q436.26-85.28 437.30-84.17L437.30-84.17L437.30-84.17Q438.34-83.06 438.34-80.57L438.34-80.57L438.34-80.57Q438.34-78.07 438.27-75.78L438.27-75.78L438.27-75.78Q438.20-73.50 437.79-72.04L437.79-72.04L437.79-72.04Q437.37-70.58 437.37-69.13L437.37-69.13L437.37-69.13Q437.37-67.67 438.00-66.49L438.00-66.49L438.00-66.49Q438.62-65.31 438.13-60.81L438.13-60.81L438.13-60.81Q437.65-56.30 436.61-51.72L436.61-51.72L436.61-51.72Q435.57-47.15 433.90-43.82L433.90-43.82L433.90-43.82Q430.58-37.58 423.09-33.97L423.09-33.97L423.09-33.97Q423.78-32.31 424.68-30.30L424.68-30.30L424.68-30.30Q425.58-28.29 426.42-26.21L426.42-26.21L426.42-26.21Q428.22-21.08 428.22-18.79L428.22-18.79L428.22-18.79Q428.22-16.50 428.43-15.46L428.43-15.46L428.43-15.46Q428.63-14.42 428.91-13.87L428.91-13.87L428.91-13.87Q429.19-13.31 429.67-13.04L429.67-13.04L429.67-13.04Q430.16-12.76 431.13-12.00L431.13-12.00L431.13-12.00Q432.10-11.23 432.66-9.43L432.66-9.43L432.66-9.43Q433.21-7.63 433.21-5.69L433.21-5.69L433.21-5.69Q433.21-1.25 432.17-0.21L432.17-0.21L432.17-0.21Q431.13 0.83 429.95 1.18L429.95 1.18L429.95 1.18Q428.77 1.53 427.53 1.66L427.53 1.66L427.53 1.66Q424.34 2.08 423.50 0.83L423.50 0.83L423.50 0.83Q422.39-0.28 422.33-1.46L422.33-1.46L422.33-1.46Q422.26-2.63 421.84-3.54L421.84-3.54L421.84-3.54Q421.42-4.44 420.59-4.65L420.59-4.65L420.59-4.65Q419.76-4.85 419.41-6.38L419.41-6.38L419.41-6.38Q419.07-7.90 418.44-8.39L418.44-8.39L418.44-8.39Q417.82-8.88 415.88-8.60L415.88-8.60L415.88-8.60Q412.41-7.90 410.75-12.76L410.75-12.76L410.75-12.76Q410.33-13.87 409.91-15.67L409.91-15.67L409.91-15.67Q409.50-17.47 408.94-19.14L408.94-19.14L408.94-19.14Q407.83-23.16 406.38-23.50L406.38-23.50L406.38-23.50Q404.92-23.85 404.23-23.16L404.23-23.16L404.23-23.16Q403.54-22.46 403.19-21.29L403.19-21.29L403.19-21.29Q402.84-20.11 402.84-18.65L402.84-18.65L402.84-18.65Q402.84-17.20 403.19-15.53L403.19-15.53L403.19-15.53Q403.54-13.87 403.26-12.76L403.26-12.76L403.26-12.76Q402.98-11.65 402.50-10.96L402.50-10.96L402.50-10.96Q402.01-10.26 401.46-9.71L401.46-9.71L401.46-9.71Q400.35-9.01 400.14-6.93L400.14-6.93L400.14-6.93Q399.93-4.85 399.51-3.33L399.51-3.33L399.51-3.33Q398.68 0.42 397.29 1.39L397.29 1.39L397.29 1.39Q395.91 2.36 394.52 2.57L394.52 2.57L394.52 2.57Q393.13 2.77 391.75 2.50L391.75 2.50L391.75 2.50Q388.28 1.80 387.45 0.07L387.45 0.07L387.45 0.07Q386.62-1.66 386.48-2.57L386.48-2.57L386.48-2.57Q386.34-3.47 386.41-4.30L386.41-4.30L386.41-4.30Q386.48-5.13 386.62-6.10L386.62-6.10L386.62-6.10Q386.76-7.07 386.69-8.39L386.69-8.39L386.69-8.39Q386.62-9.71 386.06-11.93L386.06-11.93L386.06-11.93Q385.51-14.14 385.37-17.20L385.37-17.20L385.23-20.80L385.23-20.80Q385.23-21.36 386.20-22.67L386.20-22.67L386.20-22.67Q387.17-23.99 386.83-25.72L386.83-25.72L386.83-25.72Q386.48-27.46 385.23-27.94L385.23-27.94L385.23-27.94Q383.98-28.43 383.98-29.12L383.98-29.12L383.98-29.12Q383.98-29.81 384.26-32.59L384.26-32.59L384.26-32.59Q384.54-35.36 384.05-39.52L384.05-39.52L384.05-39.52Q383.57-43.68 383.43-46.87L383.43-46.87L383.43-46.87Q382.87-53.80 381.00-54.71L381.00-54.71L381.00-54.71Q379.13-55.61 378.85-56.92L378.85-56.92L378.85-56.92Q378.57-58.24 378.85-59.91L378.85-59.91L378.85-59.91Q379.13-61.57 379.48-64.07L379.48-64.07L379.48-64.07Q379.82-66.56 380.24-69.13L380.24-69.13L380.24-69.13Q380.65-71.69 381.00-73.91L381.00-73.91L381.00-73.91Q381.35-76.13 381.49-76.96L381.49-76.96L381.49-76.96Q381.63-77.79 381.56-78.56L381.56-78.56L381.56-78.56Q381.49-79.32 381.49-80.01L381.49-80.01L381.49-80.01Q381.21-82.23 381.49-83.90L381.49-83.90L381.49-83.90Q382.04-87.09 381.76-88.40L381.76-88.40L381.76-88.40Q381.49-89.72 382.25-92.42L382.25-92.42L382.25-92.42Q383.01-95.13 383.57-96.24L383.57-96.24L383.57-96.24Q384.12-97.35 385.65-97.90L385.65-97.90L385.65-97.90Q387.17-98.46 388.63-99.50L388.63-99.50L388.63-99.50Q390.08-100.54 391.33-101.58L391.33-101.58L391.33-101.58Q392.58-102.62 393.55-103.52L393.55-103.52L393.55-103.52Q394.52-104.42 395.91-104.84L395.91-104.84L395.91-104.84Q399.93-105.67 401.80-105.04L401.80-105.04L401.80-105.04Q403.67-104.42 404.51-103.73L404.51-103.73L404.51-103.73Q405.34-103.03 406.52-102.34L406.52-102.34L406.52-102.34Q407.70-101.65 409.01-101.30L409.01-101.30L409.01-101.30Q410.33-100.95 411.44-100.95L411.44-100.95L411.44-100.95Q414.35-100.68 414.98-100.19L414.98-100.19L414.98-100.19Q415.60-99.71 416.43-99.71ZM404.92-61.02L404.92-61.02L405.75-48.40L405.75-48.40Q405.75-47.15 405.62-45.97L405.62-45.97L405.62-45.97Q405.48-44.79 405.34-43.82L405.34-43.82L405.34-43.82Q405.20-41.74 406.86-41.32L406.86-41.32L406.86-41.32Q408.25-41.05 409.08-42.09L409.08-42.09L409.08-42.09Q409.91-43.13 410.61-44.93L410.61-44.93L410.61-44.93Q412.27-48.40 411.72-49.37L411.72-49.37L411.72-49.37Q410.61-50.75 411.09-51.79L411.09-51.79L411.09-51.79Q411.58-52.83 413.17-55.88L413.17-55.88L413.17-55.88Q414.77-58.94 415.53-61.15L415.53-61.15L415.53-61.15Q416.29-63.37 415.88-65.94L415.88-65.94L415.88-65.94Q415.46-68.50 415.46-69.47L415.46-69.47L415.46-71L415.46-71Q415.46-72.11 414.42-73.01L414.42-73.01L414.42-73.01Q413.38-73.91 412.96-73.98L412.96-73.98L412.96-73.98Q412.55-74.05 412.27-74.05L412.27-74.05L412.27-74.05Q411.02-73.77 409.91-74.26L409.91-74.26L409.91-74.26Q408.80-74.74 407.83-74.67L407.83-74.67L407.83-74.67Q406.86-74.61 405.62-73.36L405.62-73.36L405.62-73.36Q404.37-72.11 404.23-70.79L404.23-70.79L404.23-70.79Q404.09-69.47 404.23-67.81L404.23-67.81L404.23-67.81Q404.92-62.82 404.92-61.02Z" fill="#444"></path></g></g><style>text {
  font-size: 64px;
  font-family: Arial Black;
  dominant-baseline: central;
  text-anchor: middle;
}</style></svg>